<svg width="29" height="29" viewBox="0 0 29 29" fill="none" xmlns="http://www.w3.org/2000/svg">
<g clip-path="url(#clip0_106_31)">
<path d="M29 14.5C29 6.49187 22.5081 -6.47297e-07 14.5 -6.47297e-07C6.49187 -6.47297e-07 0 6.49187 0 14.5C0 21.7374 5.30244 27.7361 12.2344 28.8239V18.6914H8.55273V14.5H12.2344V11.3055C12.2344 7.67141 14.3991 5.66406 17.7112 5.66406C19.2977 5.66406 20.957 5.94727 20.957 5.94727V9.51563H19.1286C17.3274 9.51563 16.7656 10.6333 16.7656 11.78V14.5H20.7871L20.1442 18.6914H16.7656V28.8239C23.6976 27.7361 29 21.7374 29 14.5Z" fill="black"/>
<path d="M20.1442 18.6914L20.7871 14.5H16.7656V11.78C16.7656 10.6333 17.3274 9.51562 19.1286 9.51562H20.957V5.94726C20.957 5.94726 19.2977 5.66406 17.7112 5.66406C14.3991 5.66406 12.2344 7.67141 12.2344 11.3055V14.5H8.55273V18.6914H12.2344V28.8238C12.9726 28.9397 13.7292 29 14.5 29C15.2708 29 16.0274 28.9397 16.7656 28.8238V18.6914H20.1442Z" fill="white"/>
</g>
<defs>
<clipPath id="clip0_106_31">
<rect width="29" height="29" fill="white"/>
</clipPath>
</defs>
</svg>
