<svg width="29" height="30" viewBox="0 0 29 30" fill="none" xmlns="http://www.w3.org/2000/svg">
<g clip-path="url(#clip0_106_127)">
<path d="M29 14.9999C29 6.99174 22.5081 0.499877 14.5 0.499877C6.49187 0.499877 0 6.99174 0 14.9999C0 22.2372 5.30244 28.2359 12.2344 29.3237V19.1913H8.55273V14.9999H12.2344V11.8053C12.2344 8.17128 14.3991 6.16394 17.7112 6.16394C19.2977 6.16394 20.957 6.44714 20.957 6.44714V10.0155H19.1286C17.3274 10.0155 16.7656 11.1332 16.7656 12.2799V14.9999H20.7871L20.1442 19.1913H16.7656V29.3237C23.6976 28.2359 29 22.2372 29 14.9999Z" fill="white"/>
<path d="M20.1442 19.1914L20.7871 15H16.7656V12.28C16.7656 11.1333 17.3274 10.0156 19.1286 10.0156H20.957V6.44726C20.957 6.44726 19.2977 6.16406 17.7112 6.16406C14.3991 6.16406 12.2344 8.17141 12.2344 11.8055V15H8.55273V19.1914H12.2344V29.3238C12.9726 29.4397 13.7292 29.5 14.5 29.5C15.2708 29.5 16.0274 29.4397 16.7656 29.3238V19.1914H20.1442Z" fill="#141414"/>
</g>
<defs>
<clipPath id="clip0_106_127">
<rect width="29" height="29" fill="white" transform="translate(0 0.5)"/>
</clipPath>
</defs>
</svg>
