<svg width="29" height="30" viewBox="0 0 29 30" fill="none" xmlns="http://www.w3.org/2000/svg">
<g clip-path="url(#clip0_106_125)">
<path d="M8.4947 0.60141C6.9519 0.6742 5.89833 0.92041 4.97729 1.28233C4.02406 1.65382 3.21612 2.15233 2.41224 2.95911C1.60836 3.76589 1.11333 4.57441 0.744453 5.52909C0.387463 6.45216 0.145604 7.5066 0.0774535 9.05027C0.00930352 10.5939 -0.00577649 11.0901 0.00176351 15.0277C0.00930351 18.9654 0.0267035 19.4589 0.101524 21.0058C0.175183 22.5483 0.420523 23.6016 0.782443 24.5229C1.15451 25.4762 1.65244 26.2838 2.45951 27.088C3.26658 27.8921 4.07452 28.386 5.03152 28.7555C5.95372 29.1119 7.00845 29.3549 8.55183 29.4225C10.0952 29.49 10.592 29.5057 14.5284 29.4982C18.4649 29.4906 18.9605 29.4732 20.5071 29.3999C22.0537 29.3265 23.1014 29.0794 24.023 28.7192C24.9763 28.3463 25.7845 27.8492 26.5881 27.0419C27.3917 26.2345 27.8864 25.4254 28.255 24.4701C28.6123 23.5479 28.855 22.4932 28.922 20.951C28.9896 19.4033 29.0055 18.9091 28.998 14.9721C28.9905 11.035 28.9728 10.5414 28.8994 8.99517C28.826 7.44889 28.5804 6.3988 28.2188 5.47689C27.8461 4.52366 27.3488 3.71659 26.542 2.91184C25.7352 2.10709 24.9255 1.61264 23.9706 1.24492C23.0478 0.88793 21.9936 0.64462 20.4502 0.57792C18.9069 0.51122 18.4101 0.49411 14.4722 0.50165C10.5343 0.50919 10.0413 0.52601 8.4947 0.60141ZM8.66406 26.8139C7.25031 26.7524 6.48268 26.5175 5.97112 26.3209C5.29368 26.0599 4.81112 25.7444 4.3013 25.2395C3.79148 24.7346 3.47828 24.2503 3.2138 23.5743C3.01515 23.0628 2.7759 22.296 2.70978 20.8823C2.63786 19.3543 2.62278 18.8955 2.61437 15.0243C2.60596 11.1531 2.62075 10.6949 2.68774 9.16627C2.74806 7.75368 2.98441 6.98518 3.18074 6.47391C3.44174 5.7956 3.7561 5.31391 4.26215 4.80438C4.7682 4.29485 5.25105 3.98107 5.92762 3.71659C6.4386 3.51707 7.20536 3.27985 8.61853 3.21257C10.1477 3.14007 10.6059 3.12557 14.4765 3.11716C18.3472 3.10875 18.8065 3.12325 20.3363 3.19053C21.7489 3.25201 22.5177 3.48604 23.0283 3.68353C23.7061 3.94453 24.1883 4.25802 24.6979 4.76494C25.2074 5.27186 25.5215 5.75297 25.786 6.43099C25.9858 6.94052 26.223 7.70699 26.2897 9.12103C26.3625 10.6502 26.379 11.1087 26.386 14.979C26.3929 18.8494 26.3793 19.309 26.3123 20.837C26.2505 22.2508 26.0162 23.0187 25.8193 23.5308C25.5583 24.208 25.2437 24.6908 24.7373 25.2001C24.231 25.7093 23.7487 26.0231 23.0718 26.2876C22.5614 26.4868 21.7938 26.7246 20.3818 26.7919C18.8526 26.8638 18.3944 26.8789 14.5224 26.8873C10.6503 26.8957 10.1935 26.88 8.66435 26.8139M20.4848 7.25024C20.4853 7.5944 20.588 7.93067 20.7796 8.2165C20.9713 8.50234 21.2435 8.7249 21.5617 8.85605C21.8799 8.9872 22.2298 9.02104 22.5673 8.95329C22.9047 8.88554 23.2145 8.71925 23.4574 8.47544C23.7003 8.23164 23.8654 7.92127 23.9319 7.58359C23.9985 7.24592 23.9633 6.8961 23.831 6.57839C23.6987 6.26068 23.4751 5.98934 23.1886 5.79869C22.9021 5.60804 22.5654 5.50665 22.2213 5.50734C21.7599 5.50826 21.3178 5.69239 20.9921 6.01923C20.6665 6.34607 20.484 6.78886 20.4848 7.25024ZM7.05485 15.0144C7.06297 19.1266 10.4026 22.4526 14.5139 22.4448C18.6253 22.437 21.9536 19.0976 21.9458 14.9854C21.9379 10.8732 18.5974 7.54633 14.4855 7.55445C10.3736 7.56257 7.04702 10.9028 7.05485 15.0144ZM9.66659 15.0092C9.6647 14.0532 9.94633 13.1182 10.4759 12.3223C11.0054 11.5264 11.759 10.9054 12.6415 10.5378C13.524 10.1702 14.4956 10.0726 15.4336 10.2572C16.3715 10.4419 17.2337 10.9005 17.911 11.5751C18.5883 12.2497 19.0503 13.1101 19.2387 14.0473C19.427 14.9845 19.3333 15.9565 18.9692 16.8405C18.6051 17.7244 17.9871 18.4805 17.1933 19.0132C16.3995 19.5458 15.4656 19.8312 14.5096 19.833C13.8748 19.8344 13.246 19.7107 12.6591 19.4689C12.0722 19.2272 11.5386 18.8723 11.0889 18.4243C10.6391 17.9764 10.2821 17.4442 10.038 16.8582C9.79398 16.2723 9.66777 15.6439 9.66659 15.0092Z" fill="white"/>
</g>
<defs>
<clipPath id="clip0_106_125">
<rect width="29" height="29" fill="white" transform="translate(0 0.5)"/>
</clipPath>
</defs>
</svg>
