<svg width="29" height="29" viewBox="0 0 29 29" fill="none" xmlns="http://www.w3.org/2000/svg">
<g clip-path="url(#clip0_106_54)">
<path d="M8.4947 0.101532C6.9519 0.174322 5.89833 0.420532 4.97729 0.782452C4.02406 1.15394 3.21612 1.65245 2.41224 2.45923C1.60836 3.26601 1.11333 4.07453 0.744453 5.02921C0.387463 5.95228 0.145604 7.00672 0.0774535 8.55039C0.00930352 10.0941 -0.00577649 10.5903 0.00176351 14.5279C0.00930351 18.4655 0.0267035 18.9591 0.101524 20.5059C0.175183 22.0484 0.420523 23.1017 0.782443 24.0231C1.15451 24.9763 1.65244 25.7839 2.45951 26.5881C3.26658 27.3923 4.07452 27.8861 5.03152 28.2556C5.95372 28.612 7.00845 28.855 8.55183 28.9226C10.0952 28.9902 10.592 29.0058 14.5284 28.9983C18.4649 28.9908 18.9605 28.9734 20.5071 28.9C22.0537 28.8266 23.1014 28.5795 24.023 28.2194C24.9763 27.8464 25.7845 27.3494 26.5881 26.542C27.3917 25.7346 27.8864 24.9255 28.255 23.9703C28.6123 23.0481 28.855 21.9933 28.922 20.4511C28.9896 18.9034 29.0055 18.4092 28.998 14.4722C28.9905 10.5352 28.9728 10.0416 28.8994 8.49529C28.826 6.94901 28.5804 5.89892 28.2188 4.97701C27.8461 4.02378 27.3488 3.21671 26.542 2.41196C25.7352 1.60721 24.9255 1.11276 23.9706 0.745042C23.0478 0.388052 21.9936 0.144742 20.4502 0.0780416C18.9069 0.0113416 18.4101 -0.00576839 14.4722 0.00177161C10.5343 0.00931161 10.0413 0.0261316 8.4947 0.101532ZM8.66406 26.3141C7.25031 26.2526 6.48268 26.0177 5.97112 25.8211C5.29368 25.5601 4.81112 25.2445 4.3013 24.7396C3.79148 24.2348 3.47828 23.7505 3.2138 23.0745C3.01515 22.5629 2.7759 21.7961 2.70978 20.3824C2.63786 18.8544 2.62278 18.3956 2.61437 14.5244C2.60596 10.6532 2.62075 10.195 2.68774 8.66639C2.74806 7.2538 2.98441 6.4853 3.18074 5.97403C3.44174 5.29572 3.7561 4.81403 4.26215 4.3045C4.7682 3.79497 5.25105 3.48119 5.92762 3.21671C6.4386 3.01719 7.20536 2.77997 8.61853 2.71269C10.1477 2.64019 10.6059 2.62569 14.4765 2.61728C18.3472 2.60887 18.8065 2.62337 20.3363 2.69065C21.7489 2.75213 22.5177 2.98616 23.0283 3.18365C23.7061 3.44465 24.1883 3.75814 24.6979 4.26506C25.2074 4.77198 25.5215 5.25309 25.786 5.93111C25.9858 6.44064 26.223 7.20711 26.2897 8.62115C26.3625 10.1503 26.379 10.6088 26.386 14.4792C26.3929 18.3495 26.3793 18.8091 26.3123 20.3372C26.2505 21.7509 26.0162 22.5188 25.8193 23.031C25.5583 23.7081 25.2437 24.191 24.7373 24.7002C24.231 25.2094 23.7487 25.5232 23.0718 25.7877C22.5614 25.9869 21.7938 26.2247 20.3818 26.292C18.8526 26.3639 18.3944 26.379 14.5224 26.3874C10.6503 26.3958 10.1935 26.3802 8.66435 26.3141M20.4848 6.75036C20.4853 7.09453 20.588 7.43079 20.7796 7.71662C20.9713 8.00246 21.2435 8.22502 21.5617 8.35617C21.8799 8.48732 22.2298 8.52116 22.5673 8.45341C22.9047 8.38566 23.2145 8.21937 23.4574 7.97557C23.7003 7.73176 23.8654 7.42139 23.9319 7.08372C23.9985 6.74604 23.9633 6.39622 23.831 6.07851C23.6987 5.7608 23.4751 5.48946 23.1886 5.29881C22.9021 5.10816 22.5654 5.00677 22.2213 5.00746C21.7599 5.00838 21.3178 5.19251 20.9921 5.51935C20.6665 5.84619 20.484 6.28899 20.4848 6.75036ZM7.05485 14.5145C7.06297 18.6267 10.4026 21.9527 14.5139 21.9449C18.6253 21.9371 21.9536 18.5977 21.9458 14.4855C21.9379 10.3733 18.5974 7.04645 14.4855 7.05457C10.3736 7.06269 7.04702 10.4029 7.05485 14.5145ZM9.66659 14.5093C9.6647 13.5534 9.94633 12.6183 10.4759 11.8224C11.0054 11.0265 11.759 10.4055 12.6415 10.0379C13.524 9.67034 14.4956 9.57269 15.4336 9.75734C16.3715 9.94198 17.2337 10.4006 17.911 11.0752C18.5883 11.7499 19.0503 12.6102 19.2387 13.5474C19.427 14.4846 19.3333 15.4567 18.9692 16.3406C18.6051 17.2245 17.9871 17.9806 17.1933 18.5133C16.3995 19.046 15.4656 19.3313 14.5096 19.3332C13.8748 19.3345 13.246 19.2108 12.6591 18.9691C12.0722 18.7274 11.5386 18.3724 11.0889 17.9244C10.6391 17.4765 10.2821 16.9443 10.038 16.3583C9.79398 15.7724 9.66777 15.1441 9.66659 14.5093Z" fill="black"/>
</g>
<defs>
<clipPath id="clip0_106_54">
<rect width="29" height="29" fill="white"/>
</clipPath>
</defs>
</svg>
