<svg width="228" height="21" viewBox="0 0 228 21" fill="none" xmlns="http://www.w3.org/2000/svg">
<path d="M3.54688 19.6869C2.72253 19.6869 2.12596 19.5638 1.75717 19.3174C1.38838 19.0487 1.1606 18.7912 1.07383 18.5449C0.987051 18.2985 0.943665 18.1754 0.943665 18.1754C0.943665 18.1754 0.932818 17.9066 0.911124 17.3692C0.911124 16.8094 0.900278 16.0816 0.878584 15.1858C0.878584 14.2901 0.867738 13.3048 0.846044 12.2299C0.824351 11.155 0.802657 10.0801 0.780964 9.00523C0.780964 7.93035 0.770117 6.94503 0.748424 6.04929C0.72673 5.15356 0.705037 4.43696 0.683343 3.89952C0.683343 3.33968 0.683343 3.05976 0.683343 3.05976C0.66165 3.05976 0.542336 2.9478 0.325402 2.72386C0.130161 2.49993 0.0216934 2.2648 0 2.01847C0 1.83932 0.206088 1.58179 0.618263 1.24589C1.03044 0.909989 1.72463 0.630072 2.70083 0.406137C3.69873 0.159808 5.06542 0.115021 6.80089 0.271776C8.36282 0.406136 9.5885 0.674858 10.4779 1.07794C11.3891 1.45863 12.0507 1.87291 12.4629 2.32078C12.8751 2.74626 13.1354 3.12694 13.2438 3.46285C13.3523 3.77636 13.4065 3.93311 13.4065 3.93311C13.4065 3.93311 13.4174 3.9667 13.4391 4.03388C13.4825 4.10106 13.515 4.3138 13.5367 4.6721C13.5801 5.008 13.6126 5.56784 13.6343 6.35161C13.656 7.13538 13.656 8.23266 13.6343 9.64345C13.6126 10.7855 13.3523 11.6925 12.8534 12.3643C12.3761 13.0361 11.7795 13.5399 11.0637 13.8758C10.3478 14.1893 9.63189 14.4021 8.916 14.514C8.22181 14.6036 7.63609 14.6484 7.15883 14.6484C6.68158 14.626 6.44295 14.6148 6.44295 14.6148C6.44295 14.6148 6.44295 14.8611 6.44295 15.3538C6.46464 15.8241 6.46464 16.619 6.44295 17.7387C6.44295 18.2985 6.2911 18.724 5.98739 19.0151C5.70537 19.2838 5.36913 19.463 4.97864 19.5526C4.60986 19.6421 4.27361 19.6869 3.9699 19.6869C3.68788 19.6869 3.54688 19.6869 3.54688 19.6869ZM6.11755 3.39567L6.41041 11.726C6.41041 11.726 6.55142 11.7148 6.83343 11.6925C7.11545 11.6477 7.44085 11.5357 7.80964 11.3566C8.17843 11.1774 8.49298 10.8751 8.7533 10.4496C9.03532 10.0017 9.15463 9.37473 9.11124 8.56856C9.06786 7.49367 9.02447 6.68751 8.98108 6.15007C8.9377 5.61262 8.90516 5.26552 8.88346 5.10877C8.88346 4.92962 8.88346 4.84005 8.88346 4.84005C8.88346 4.84005 8.86177 4.75047 8.81838 4.57132C8.79669 4.36978 8.70992 4.15705 8.55806 3.93311C8.40621 3.70918 8.13504 3.54122 7.74456 3.42926C7.37577 3.2949 6.83343 3.2837 6.11755 3.39567Z" fill="white"/>
<path d="M18.4157 1.5482C18.394 1.5482 18.4265 1.42504 18.5133 1.17871C18.6218 0.909989 18.8604 0.652465 19.2292 0.406137C19.598 0.159808 20.2054 0.0254468 21.0514 0.00305359C21.8107 -0.0193396 22.3856 0.0814309 22.7761 0.305366C23.1666 0.506907 23.4269 0.708448 23.557 0.90999C23.7089 1.11153 23.7848 1.2123 23.7848 1.2123C23.7848 1.2123 23.9041 1.50342 24.1428 2.08565C24.3814 2.66788 24.7068 3.44045 25.119 4.40337C25.5311 5.3439 25.9867 6.39639 26.4857 7.56085C26.9846 8.72532 27.4836 9.91217 27.9825 11.1214C28.5031 12.3083 28.9804 13.4279 29.4143 14.4804C29.8698 15.5105 30.2495 16.3839 30.5532 17.1005C30.8569 17.7947 31.0521 18.2313 31.1389 18.4105C31.3341 18.836 31.4426 19.1383 31.4643 19.3174C31.486 19.4966 31.4751 19.6197 31.4318 19.6869C31.4101 19.7317 31.3992 19.7653 31.3992 19.7877C31.2474 20.1012 30.9437 20.3699 30.4881 20.5939C30.0542 20.8402 29.5227 20.9746 28.8936 20.9969C28.0259 21.0193 27.3968 20.9186 27.0063 20.6946C26.6158 20.4931 26.3555 20.2804 26.2253 20.0564C26.1169 19.8549 26.0735 19.7653 26.0952 19.7877C26.0952 19.7877 25.9759 19.5302 25.7372 19.0151C25.5203 18.5001 25.26 17.8843 24.9563 17.1677C24.6526 16.4287 24.3705 15.7569 24.1102 15.1522C24.1102 15.1522 23.9584 15.1522 23.6547 15.1522C23.3726 15.1522 23.0364 15.1522 22.6459 15.1522C22.2554 15.1522 21.9083 15.1522 21.6046 15.1522C21.3226 15.1522 21.1816 15.1522 21.1816 15.1522C21.0948 15.4658 21.0081 15.8576 20.9213 16.3279C20.8345 16.7758 20.7586 17.1789 20.6935 17.5372C20.6284 17.8954 20.5959 18.0746 20.5959 18.0746C20.5959 18.0746 20.5417 18.209 20.4332 18.4777C20.3464 18.7464 20.0969 19.0151 19.6848 19.2838C19.2726 19.5526 18.5892 19.6869 17.6347 19.6869C16.9188 19.6869 16.3765 19.6086 16.0077 19.4518C15.6606 19.2726 15.422 19.0711 15.2918 18.8472C15.1834 18.6232 15.1291 18.4329 15.1291 18.2761C15.1291 18.097 15.1291 18.0074 15.1291 18.0074C15.1725 17.7835 15.2593 17.3244 15.3895 16.6302C15.5413 15.9136 15.7149 15.0627 15.9101 14.0774C16.127 13.0697 16.344 12.006 16.5609 10.8863C16.7995 9.76661 17.0273 8.65814 17.2442 7.56085C17.4612 6.46357 17.6564 5.46706 17.83 4.57132C18.0035 3.65319 18.1445 2.9254 18.253 2.38796C18.3615 1.82812 18.4157 1.5482 18.4157 1.5482ZM21.8324 6.85546C21.8107 6.94503 21.789 7.12418 21.7673 7.3929L21.6372 8.33343C21.5938 8.84848 21.5396 9.39712 21.4745 9.97935C21.4094 10.5616 21.3443 11.1102 21.2792 11.6253C21.2358 11.894 21.2033 12.0619 21.1816 12.1291H21.6046C21.865 12.1291 22.147 12.1179 22.4507 12.0955C22.7544 12.0731 23.0256 12.0619 23.2642 12.0619C23.1774 11.8828 23.1015 11.6589 23.0364 11.3901C22.993 11.099 22.9388 10.8303 22.8737 10.584C22.7435 10.0689 22.5917 9.53148 22.4181 8.97164C22.2663 8.41181 22.1253 7.88556 21.9951 7.3929C21.93 7.12418 21.8758 6.94503 21.8324 6.85546Z" fill="white"/>
<path d="M33.1088 1.68256C33.1088 1.68256 33.2607 1.68256 33.5644 1.68256C33.8681 1.66017 34.2261 1.71616 34.6382 1.85052C35.0504 1.96248 35.4192 2.19761 35.7446 2.55591C36.0917 2.89181 36.2978 3.41806 36.3629 4.13465C36.4062 4.69449 36.493 5.42228 36.6232 6.31802C36.7533 7.19136 36.8943 8.10949 37.0462 9.07242C37.1981 10.0353 37.3391 10.9423 37.4692 11.7932C37.6211 12.6218 37.7404 13.3048 37.8272 13.8422C37.9356 14.3797 37.9899 14.6484 37.9899 14.6484L39.3891 9.27396C39.3891 9.27396 39.4433 9.1172 39.5518 8.80369C39.6603 8.46779 39.8555 8.14309 40.1375 7.82958C40.4412 7.51607 40.8859 7.35931 41.4717 7.35931C42.0574 7.35931 42.5021 7.48248 42.8058 7.72881C43.1095 7.95274 43.3265 8.23266 43.4566 8.56856C43.6085 8.90446 43.7278 9.22917 43.8146 9.54268C43.8796 9.76661 43.9773 10.1473 44.1074 10.6847C44.2593 11.1998 44.4003 11.7484 44.5304 12.3307C44.6823 12.9129 44.8125 13.4056 44.9209 13.8086C45.0294 14.2117 45.0836 14.4133 45.0836 14.4133L45.3765 11.6253L46.7432 1.74975C46.7432 1.74975 46.8082 1.60419 46.9384 1.31307C47.0903 0.999562 47.3723 0.697251 47.7845 0.406137C48.2183 0.115021 48.8583 0.00305346 49.7043 0.070233C50.9842 0.159807 51.7652 0.428529 52.0472 0.8764C52.3509 1.32427 52.3943 1.87291 52.1774 2.52232C52.0689 2.83583 51.9062 3.51883 51.6893 4.57132C51.4723 5.60142 51.2229 6.84426 50.9409 8.29984C50.6588 9.75542 50.3877 11.2894 50.1273 12.9017C49.867 14.4916 49.6392 16.0032 49.444 17.4364C49.3572 18.1754 49.162 18.7464 48.8583 19.1495C48.5763 19.5302 48.2726 19.7989 47.9472 19.9557C47.6218 20.1124 47.3397 20.202 47.1011 20.2244C46.8625 20.2468 46.7432 20.258 46.7432 20.258C46.7432 20.258 46.6022 20.258 46.3201 20.258C46.0381 20.2804 45.691 20.2356 45.2789 20.1236C44.8884 20.0116 44.4979 19.7765 44.1074 19.4182C43.7386 19.0599 43.4458 18.5001 43.2288 17.7387C42.8167 16.2159 42.4587 14.9395 42.155 13.9094C41.8513 12.8793 41.6994 12.3643 41.6994 12.3643L39.8772 18.0746C39.8772 18.0746 39.8121 18.209 39.682 18.4777C39.5518 18.7464 39.2915 19.0151 38.901 19.2838C38.5322 19.5526 37.979 19.6869 37.2414 19.6869C36.1351 19.6869 35.365 19.5078 34.9311 19.1495C34.5189 18.7688 34.1935 18.1642 33.9549 17.3356C33.8898 17.0445 33.7596 16.5294 33.5644 15.7905C33.3692 15.0291 33.1522 14.1445 32.9136 13.1368C32.675 12.1291 32.4255 11.099 32.1652 10.0465C31.9049 8.97164 31.6662 7.98633 31.4493 7.09059C31.2324 6.17246 31.048 5.43347 30.8961 4.87364C30.766 4.29141 30.7009 4.00029 30.7009 4.00029C30.7009 4.00029 30.6792 3.89952 30.6358 3.69798C30.5924 3.49644 30.6141 3.26131 30.7009 2.99258C30.7876 2.70147 31.0046 2.43275 31.3517 2.18642C31.7205 1.94009 32.3062 1.77214 33.1088 1.68256Z" fill="white"/>
<path d="M64.4074 6.28443C63.6698 6.28443 63.1058 6.19485 62.7153 6.01571C62.3248 5.81416 62.0428 5.59023 61.8693 5.3439C61.7174 5.09757 61.6306 4.87364 61.6089 4.6721C61.5872 4.44816 61.5764 4.3138 61.5764 4.26901C61.5764 4.15705 61.533 3.9779 61.4462 3.73157C61.3812 3.46285 61.1642 3.32849 60.7954 3.32849C60.188 3.32849 59.6457 3.51883 59.1684 3.89952C58.7129 4.28021 58.4634 4.84005 58.42 5.57903C58.3766 6.31802 58.561 6.95623 58.9732 7.49367C59.3854 8.03112 60.1989 8.31104 61.4137 8.33343C62.0211 8.33343 62.6611 8.423 63.3336 8.60215C64.0061 8.7813 64.6352 9.07241 65.2209 9.4755C65.8283 9.85619 66.3056 10.3824 66.6527 11.0542C67.0215 11.7036 67.2058 12.521 67.2058 13.5063C67.1841 15.477 66.6744 16.9997 65.6765 18.0746C64.6786 19.1495 63.019 19.6869 60.6978 19.6869C59.1576 19.6869 57.9211 19.4966 56.9882 19.1159C56.0554 18.7128 55.3721 18.2425 54.9382 17.7051C54.526 17.1677 54.3091 16.6862 54.2874 16.2607C54.2657 15.8352 54.2874 15.421 54.3525 15.0179C54.4393 14.6148 54.667 14.2677 55.0358 13.9766C55.4263 13.6855 56.0446 13.5063 56.8906 13.4391C57.7584 13.372 58.3766 13.4503 58.7454 13.6743C59.1142 13.8758 59.342 14.1109 59.4287 14.3797C59.5372 14.6484 59.5914 14.8163 59.5914 14.8835C59.5914 14.9507 59.6131 15.1187 59.6565 15.3874C59.7216 15.6337 59.8301 15.88 59.9819 16.1264C60.1555 16.3503 60.3941 16.4623 60.6978 16.4623C61.1534 16.4623 61.5439 16.2719 61.8693 15.8912C62.1947 15.5105 62.4007 14.8947 62.4875 14.0438C62.6394 12.3643 61.8259 11.5245 60.047 11.5245C59.6131 11.5245 59.0491 11.4573 58.3549 11.323C57.6824 11.1662 57.0099 10.8975 56.3374 10.5168C55.6649 10.1137 55.1009 9.55388 54.6453 8.83728C54.1898 8.12069 53.9728 7.18017 53.9945 6.01571C54.0162 4.85124 54.2223 3.89952 54.6128 3.16053C55.0033 2.39916 55.5131 1.81693 56.1422 1.41384C56.793 0.988366 57.498 0.686054 58.2573 0.506906C59.0383 0.327758 59.8084 0.226987 60.5677 0.204594C61.5872 0.182201 62.5634 0.305365 63.4963 0.574088C64.4508 0.842809 65.2426 1.25709 65.8717 1.81693C66.5225 2.35437 66.8913 3.05976 66.9781 3.93311C67.0431 4.58252 66.9455 5.07518 66.6852 5.41108C66.4466 5.72459 66.1429 5.94852 65.7741 6.08288C65.427 6.19485 65.1124 6.26203 64.8304 6.28443C64.5484 6.28443 64.4074 6.28443 64.4074 6.28443Z" fill="white"/>
<path d="M80.2494 9.20678C80.2494 9.20678 80.1084 9.07242 79.8263 8.80369C79.566 8.51258 79.2515 8.13189 78.8827 7.66163C78.5356 7.19136 78.221 6.66512 77.939 6.08288C77.6787 5.50065 77.5594 4.90723 77.5811 4.3026C77.6028 3.51883 77.8089 2.86942 78.1993 2.35437C78.6115 1.83932 79.0996 1.42504 79.6636 1.11153C80.2494 0.798021 80.8242 0.574087 81.3883 0.439727C81.974 0.282972 82.4621 0.182201 82.8526 0.137415C83.2431 0.092627 83.4383 0.070233 83.4383 0.070233C83.9806 0.0254467 84.588 0.0366441 85.2605 0.103825C85.9547 0.148611 86.6164 0.271775 87.2455 0.473316C87.8963 0.652465 88.4386 0.932382 88.8725 1.31307C89.3064 1.69376 89.545 2.19761 89.5884 2.82463C89.6318 3.45165 89.4908 4.12345 89.1654 4.84005C88.8617 5.55664 88.4929 6.23964 88.059 6.88905C87.6251 7.51607 87.2346 8.04231 86.8876 8.46779C86.5621 8.87087 86.3995 9.07242 86.3995 9.07242L87.7011 10.4832C87.7011 10.4832 87.7444 10.3712 87.8312 10.1473C87.9397 9.90097 88.1241 9.63225 88.3844 9.34114C88.6447 9.02763 89.0135 8.7701 89.4908 8.56856C89.9897 8.36702 90.6297 8.31104 91.4106 8.40061C92.1916 8.49018 92.7231 8.66933 93.0051 8.93805C93.3088 9.20678 93.4607 9.49789 93.4607 9.8114C93.4607 10.1249 93.4064 10.3936 93.298 10.6176C93.2112 10.8415 93.1678 10.9535 93.1678 10.9535L91.313 14.4133C91.313 14.4133 91.4432 14.5476 91.7035 14.8163C91.9638 15.0627 92.2784 15.3874 92.6472 15.7905C93.016 16.1935 93.3739 16.619 93.721 17.0669C94.2416 17.7163 94.3609 18.3209 94.0789 18.8808C93.7969 19.4182 93.081 19.6869 91.9313 19.6869C91.172 19.6869 90.5212 19.5414 89.9789 19.2503C89.4365 18.9367 89.0244 18.6344 88.7423 18.3433C88.482 18.0522 88.3519 17.9066 88.3519 17.9066C88.3519 17.9066 88.1349 18.0522 87.7011 18.3433C87.2889 18.6344 86.6815 18.9367 85.8788 19.2503C85.0762 19.5414 84.0999 19.6869 82.9502 19.6869C81.2364 19.6869 79.848 19.2838 78.7851 18.4777C77.7221 17.6491 77.1797 16.563 77.158 15.2194C77.158 14.5476 77.3099 13.8646 77.6136 13.1704C77.9173 12.4538 78.2753 11.7932 78.6874 11.1886C79.0996 10.584 79.4575 10.1025 79.7613 9.74422C80.0867 9.36353 80.2494 9.18438 80.2494 9.20678ZM83.2756 6.51956C83.2756 6.51956 83.3624 6.3852 83.5359 6.11648C83.7095 5.82536 83.8939 5.47826 84.0891 5.07518C84.306 4.6497 84.4579 4.22423 84.5447 3.79875C84.6314 3.37327 84.5989 3.01498 84.447 2.72386C84.3169 2.43275 83.9915 2.27599 83.4708 2.2536C82.8417 2.2312 82.4296 2.36557 82.2343 2.65668C82.0391 2.9478 81.974 3.32849 82.0391 3.79875C82.1258 4.24662 82.2885 4.71688 82.5272 5.20954C82.7658 5.7022 83.0153 6.13887 83.2756 6.51956ZM83.7637 12.1963C83.3515 12.5546 83.0261 13.0249 82.7875 13.6071C82.5706 14.1669 82.4296 14.7268 82.3645 15.2866C82.2994 15.8241 82.3102 16.2831 82.397 16.6638C82.5055 17.0221 82.6682 17.2012 82.8851 17.2012C83.1237 17.2012 83.3732 17.0781 83.6335 16.8318C83.9156 16.563 84.1759 16.2607 84.4145 15.9248C84.6531 15.5889 84.8484 15.2978 85.0002 15.0515C85.1738 14.7828 85.2605 14.6484 85.2605 14.6484C85.2605 14.6484 85.1846 14.5252 85.0328 14.2789C84.9026 14.0326 84.7399 13.7527 84.5447 13.4391C84.3494 13.1032 84.1759 12.8121 84.024 12.5658C83.8722 12.3195 83.7854 12.1963 83.7637 12.1963Z" fill="white"/>
<path d="M106.261 1.68256C106.261 1.68256 106.412 1.68256 106.716 1.68256C107.02 1.66017 107.378 1.71616 107.79 1.85052C108.202 1.96248 108.571 2.19761 108.896 2.55591C109.243 2.89181 109.45 3.41806 109.515 4.13465C109.558 4.69449 109.645 5.42228 109.775 6.31802C109.905 7.19136 110.046 8.10949 110.198 9.07242C110.35 10.0353 110.491 10.9423 110.621 11.7932C110.773 12.6218 110.892 13.3048 110.979 13.8422C111.087 14.3797 111.142 14.6484 111.142 14.6484L112.541 9.27396C112.541 9.27396 112.595 9.1172 112.704 8.80369C112.812 8.46779 113.007 8.14309 113.289 7.82958C113.593 7.51607 114.038 7.35931 114.623 7.35931C115.209 7.35931 115.654 7.48248 115.958 7.72881C116.261 7.95274 116.478 8.23266 116.608 8.56856C116.76 8.90446 116.88 9.22917 116.966 9.54268C117.031 9.76661 117.129 10.1473 117.259 10.6847C117.411 11.1998 117.552 11.7484 117.682 12.3307C117.834 12.9129 117.964 13.4056 118.073 13.8086C118.181 14.2117 118.235 14.4133 118.235 14.4133L118.528 11.6253L119.895 1.74975C119.895 1.74975 119.96 1.60419 120.09 1.31307C120.242 0.999562 120.524 0.697251 120.936 0.406137C121.37 0.115021 122.01 0.00305346 122.856 0.070233C124.136 0.159807 124.917 0.428529 125.199 0.8764C125.503 1.32427 125.546 1.87291 125.329 2.52232C125.221 2.83583 125.058 3.51883 124.841 4.57132C124.624 5.60142 124.375 6.84426 124.093 8.29984C123.811 9.75542 123.539 11.2894 123.279 12.9017C123.019 14.4916 122.791 16.0032 122.596 17.4364C122.509 18.1754 122.314 18.7464 122.01 19.1495C121.728 19.5302 121.424 19.7989 121.099 19.9557C120.774 20.1124 120.492 20.202 120.253 20.2244C120.014 20.2468 119.895 20.258 119.895 20.258C119.895 20.258 119.754 20.258 119.472 20.258C119.19 20.2804 118.843 20.2356 118.431 20.1236C118.04 20.0116 117.65 19.7765 117.259 19.4182C116.89 19.0599 116.598 18.5001 116.381 17.7387C115.968 16.2159 115.611 14.9395 115.307 13.9094C115.003 12.8793 114.851 12.3643 114.851 12.3643L113.029 18.0746C113.029 18.0746 112.964 18.209 112.834 18.4777C112.704 18.7464 112.443 19.0151 112.053 19.2838C111.684 19.5526 111.131 19.6869 110.393 19.6869C109.287 19.6869 108.517 19.5078 108.083 19.1495C107.671 18.7688 107.345 18.1642 107.107 17.3356C107.042 17.0445 106.911 16.5294 106.716 15.7905C106.521 15.0291 106.304 14.1445 106.065 13.1368C105.827 12.1291 105.577 11.099 105.317 10.0465C105.057 8.97164 104.818 7.98633 104.601 7.09059C104.384 6.17246 104.2 5.43347 104.048 4.87364C103.918 4.29141 103.853 4.00029 103.853 4.00029C103.853 4.00029 103.831 3.89952 103.788 3.69798C103.744 3.49644 103.766 3.26131 103.853 2.99258C103.939 2.70147 104.156 2.43275 104.503 2.18642C104.872 1.94009 105.458 1.77214 106.261 1.68256Z" fill="white"/>
<path d="M127.732 17.8395L127.114 1.98488C127.114 1.98488 127.114 1.8953 127.114 1.71615C127.135 1.53701 127.211 1.33546 127.342 1.11153C127.472 0.865202 127.71 0.652465 128.057 0.473316C128.426 0.271775 128.958 0.159808 129.652 0.137415C130.585 0.092627 131.246 0.204594 131.637 0.473316C132.049 0.719644 132.299 0.988365 132.385 1.27948C132.494 1.5482 132.548 1.69376 132.548 1.71615C132.548 1.73855 132.559 1.99607 132.581 2.48873C132.602 2.98139 132.624 3.58601 132.646 4.3026C132.667 5.01919 132.689 5.73579 132.711 6.45238C132.732 7.16897 132.754 7.77359 132.776 8.26625C132.797 8.73651 132.808 8.97164 132.808 8.97164L136.258 8.7701L135.737 2.01847C135.737 2.01847 135.726 1.94009 135.704 1.78333C135.704 1.60419 135.748 1.40265 135.835 1.17871C135.943 0.932383 136.16 0.708448 136.485 0.506906C136.832 0.282972 137.342 0.137414 138.015 0.070233C138.709 0.00305346 139.24 0.0478405 139.609 0.204594C139.978 0.338956 140.249 0.518104 140.423 0.742039C140.596 0.965973 140.694 1.16751 140.716 1.34666C140.759 1.52581 140.781 1.61538 140.781 1.61538L141.789 17.302C141.789 17.302 141.8 17.4252 141.822 17.6715C141.844 17.8954 141.811 18.1754 141.724 18.5113C141.638 18.8248 141.421 19.1047 141.074 19.351C140.748 19.575 140.238 19.6869 139.544 19.6869C138.85 19.6869 138.308 19.5862 137.917 19.3846C137.527 19.1831 137.245 18.9591 137.071 18.7128C136.898 18.4441 136.789 18.209 136.746 18.0074C136.702 17.8059 136.681 17.7051 136.681 17.7051L136.453 11.2558L132.906 11.4573L133.199 18.041C133.199 18.041 133.188 18.1306 133.166 18.3097C133.145 18.4665 133.058 18.6568 132.906 18.8808C132.754 19.0823 132.494 19.2726 132.125 19.4518C131.756 19.6086 131.214 19.6869 130.498 19.6869C129.782 19.6869 129.229 19.5974 128.838 19.4182C128.47 19.2167 128.209 19.0039 128.057 18.78C127.906 18.5337 127.808 18.3209 127.765 18.1418C127.743 17.9402 127.732 17.8395 127.732 17.8395Z" fill="white"/>
<path d="M144.264 17.9738C144.199 17.2124 144.156 16.2607 144.134 15.1187C144.112 13.9542 144.101 12.7114 144.101 11.3901C144.101 10.0689 144.112 8.7925 144.134 7.56085C144.177 6.30682 144.221 5.19834 144.264 4.23542C144.307 3.2725 144.351 2.5783 144.394 2.15283C144.459 1.61539 144.644 1.2123 144.947 0.943579C145.251 0.652464 145.587 0.450923 145.956 0.338955C146.347 0.226988 146.672 0.171004 146.932 0.171004C147.214 0.148611 147.355 0.137415 147.355 0.137415C147.355 0.137415 147.485 0.159808 147.746 0.204594C148.028 0.226987 148.332 0.282971 148.657 0.372545C148.982 0.462119 149.21 0.618873 149.34 0.842808C149.622 1.29068 149.752 1.72735 149.731 2.15283C149.731 2.55591 149.709 3.08216 149.666 3.73157C149.535 5.41108 149.46 7.057 149.438 8.66933C149.416 10.2817 149.416 11.7484 149.438 13.0697C149.46 14.3909 149.481 15.4434 149.503 16.2271C149.546 17.0109 149.568 17.4028 149.568 17.4028C149.568 17.4028 149.557 17.526 149.535 17.7723C149.535 17.9962 149.47 18.2537 149.34 18.5449C149.21 18.836 148.961 19.1047 148.592 19.351C148.223 19.575 147.681 19.6869 146.965 19.6869C146.249 19.6869 145.696 19.6086 145.305 19.4518C144.936 19.2726 144.676 19.0711 144.524 18.8472C144.394 18.6008 144.318 18.3993 144.297 18.2425C144.275 18.0634 144.264 17.9738 144.264 17.9738Z" fill="white"/>
<path d="M162.695 6.28443C161.958 6.28443 161.394 6.19485 161.003 6.01571C160.613 5.81416 160.331 5.59023 160.157 5.3439C160.005 5.09757 159.918 4.87364 159.897 4.6721C159.875 4.44816 159.864 4.3138 159.864 4.26901C159.864 4.15705 159.821 3.9779 159.734 3.73157C159.669 3.46285 159.452 3.32849 159.083 3.32849C158.476 3.32849 157.933 3.51883 157.456 3.89952C157.001 4.28021 156.751 4.84005 156.708 5.57903C156.664 6.31802 156.849 6.95623 157.261 7.49367C157.673 8.03112 158.487 8.31104 159.701 8.33343C160.309 8.33343 160.949 8.423 161.621 8.60215C162.294 8.7813 162.923 9.07241 163.509 9.4755C164.116 9.85619 164.593 10.3824 164.94 11.0542C165.309 11.7036 165.494 12.521 165.494 13.5063C165.472 15.477 164.962 16.9997 163.964 18.0746C162.966 19.1495 161.307 19.6869 158.986 19.6869C157.445 19.6869 156.209 19.4966 155.276 19.1159C154.343 18.7128 153.66 18.2425 153.226 17.7051C152.814 17.1677 152.597 16.6862 152.575 16.2607C152.554 15.8352 152.575 15.421 152.64 15.0179C152.727 14.6148 152.955 14.2677 153.324 13.9766C153.714 13.6855 154.332 13.5063 155.178 13.4391C156.046 13.372 156.664 13.4503 157.033 13.6743C157.402 13.8758 157.63 14.1109 157.717 14.3797C157.825 14.6484 157.879 14.8163 157.879 14.8835C157.879 14.9507 157.901 15.1187 157.944 15.3874C158.009 15.6337 158.118 15.88 158.27 16.1264C158.443 16.3503 158.682 16.4623 158.986 16.4623C159.441 16.4623 159.832 16.2719 160.157 15.8912C160.482 15.5105 160.689 14.8947 160.775 14.0438C160.927 12.3643 160.114 11.5245 158.335 11.5245C157.901 11.5245 157.337 11.4573 156.643 11.323C155.97 11.1662 155.298 10.8975 154.625 10.5168C153.953 10.1137 153.389 9.55388 152.933 8.83728C152.478 8.12069 152.261 7.18017 152.282 6.01571C152.304 4.85124 152.51 3.89952 152.901 3.16053C153.291 2.39916 153.801 1.81693 154.43 1.41384C155.081 0.988366 155.786 0.686054 156.545 0.506906C157.326 0.327758 158.096 0.226987 158.855 0.204594C159.875 0.182201 160.851 0.305365 161.784 0.574088C162.739 0.842809 163.53 1.25709 164.16 1.81693C164.81 2.35437 165.179 3.05976 165.266 3.93311C165.331 4.58252 165.233 5.07518 164.973 5.41108C164.734 5.72459 164.431 5.94852 164.062 6.08288C163.715 6.19485 163.4 6.26203 163.118 6.28443C162.836 6.28443 162.695 6.28443 162.695 6.28443Z" fill="white"/>
<path d="M168.848 17.8731L167.058 2.11924C167.058 2.11924 167.047 2.04086 167.026 1.88411C167.004 1.70496 167.036 1.49222 167.123 1.24589C167.21 0.999563 167.416 0.775629 167.741 0.574088C168.089 0.350152 168.631 0.204594 169.368 0.137415C170.106 0.0702338 170.67 0.126217 171.061 0.305366C171.473 0.484514 171.766 0.708448 171.939 0.977169C172.113 1.24589 172.21 1.49222 172.232 1.71615C172.275 1.94009 172.297 2.05206 172.297 2.05206L172.818 7.19136L175.844 1.44743C175.844 1.44743 175.931 1.33546 176.104 1.11153C176.278 0.865202 176.582 0.652465 177.015 0.473316C177.449 0.294168 178.035 0.282972 178.773 0.439727C179.532 0.59648 180.042 0.809218 180.302 1.07794C180.562 1.34666 180.671 1.63778 180.627 1.95129C180.606 2.2648 180.508 2.56711 180.334 2.85822C180.226 3.03737 180.02 3.37327 179.716 3.86593C179.413 4.35859 179.055 4.91842 178.642 5.54544C178.252 6.17246 177.872 6.77708 177.504 7.35931C177.135 7.94154 176.82 8.4342 176.56 8.83728C176.321 9.21797 176.202 9.40832 176.202 9.40832L181.799 16.5294C181.799 16.5294 181.864 16.6414 181.994 16.8653C182.124 17.0669 182.2 17.3132 182.222 17.6043C182.244 17.8731 182.092 18.1194 181.766 18.3433C181.463 18.5673 180.866 18.7016 179.977 18.7464C179.109 18.7688 178.415 18.6456 177.894 18.3769C177.373 18.0858 176.994 17.7947 176.755 17.5036C176.538 17.1901 176.43 17.0333 176.43 17.0333L173.696 12.8009L174.184 17.9402C174.184 17.9402 174.184 18.0298 174.184 18.209C174.184 18.3881 174.119 18.5896 173.989 18.8136C173.881 19.0375 173.642 19.2391 173.273 19.4182C172.904 19.5974 172.362 19.6869 171.646 19.6869C170.93 19.6869 170.377 19.5974 169.987 19.4182C169.596 19.2391 169.314 19.0263 169.141 18.78C168.989 18.5337 168.902 18.3209 168.88 18.1418C168.859 17.9626 168.848 17.8731 168.848 17.8731Z" fill="white"/>
<path d="M183.581 2.65668C183.581 2.65668 183.559 2.56711 183.516 2.38796C183.472 2.18642 183.483 1.95129 183.548 1.68256C183.635 1.41384 183.83 1.16751 184.134 0.943579C184.459 0.719645 184.969 0.574087 185.663 0.506906C186.358 0.439727 187.139 0.383743 188.006 0.338955C188.896 0.294169 189.742 0.249382 190.544 0.204594C191.369 0.159808 192.041 0.126218 192.562 0.103825C193.083 0.0814305 193.343 0.070233 193.343 0.070233C193.343 0.070233 193.484 0.0814305 193.766 0.103825C194.07 0.103825 194.417 0.148611 194.807 0.238184C195.219 0.305365 195.588 0.450922 195.914 0.674857C196.239 0.876398 196.434 1.17871 196.499 1.58179C196.564 1.98488 196.488 2.29839 196.272 2.52232C196.055 2.74625 195.794 2.91421 195.491 3.02617C195.187 3.11575 194.916 3.17173 194.677 3.19412C194.438 3.21652 194.319 3.22772 194.319 3.22772L189.113 3.53003C189.113 3.53003 189.145 3.67558 189.21 3.9667C189.275 4.25782 189.34 4.59372 189.406 4.97441C189.492 5.3327 189.547 5.64621 189.568 5.91493C189.59 6.16126 189.612 6.48597 189.633 6.88905C189.655 7.26974 189.677 7.61684 189.698 7.93035C189.72 8.22146 189.731 8.36702 189.731 8.36702H192.139C192.139 8.36702 192.258 8.37822 192.497 8.40061C192.736 8.40061 193.007 8.4454 193.31 8.53497C193.636 8.60215 193.918 8.71412 194.156 8.87087C194.395 9.02763 194.525 9.26276 194.547 9.57627C194.569 9.97935 194.417 10.2817 194.091 10.4832C193.788 10.6847 193.462 10.8191 193.115 10.8863C192.79 10.9311 192.584 10.9647 192.497 10.9871C192.432 10.9871 192.258 10.9983 191.976 11.0206C191.694 11.0206 191.38 11.0206 191.033 11.0206C190.707 11.0206 190.414 11.0206 190.154 11.0206C189.894 11.0206 189.764 11.0206 189.764 11.0206C189.764 11.0206 189.764 11.1886 189.764 11.5245C189.785 11.838 189.807 12.2075 189.829 12.633C189.85 13.0585 189.85 13.4279 189.829 13.7415C189.829 14.0326 189.818 14.3909 189.796 14.8163C189.774 15.2194 189.753 15.5777 189.731 15.8912C189.709 16.1823 189.698 16.3279 189.698 16.3279L194.091 16.16C194.091 16.16 194.232 16.16 194.514 16.16C194.796 16.1376 195.133 16.16 195.523 16.2271C195.914 16.2943 196.261 16.4287 196.564 16.6302C196.868 16.8318 197.031 17.1341 197.053 17.5372C197.096 17.9402 196.987 18.2649 196.727 18.5113C196.467 18.7576 196.163 18.9367 195.816 19.0487C195.469 19.1607 195.154 19.2391 194.872 19.2838C194.612 19.3062 194.482 19.3174 194.482 19.3174L187.453 19.6869C187.453 19.6869 187.28 19.6869 186.933 19.6869C186.607 19.7093 186.227 19.6869 185.794 19.6197C185.36 19.5302 184.98 19.3622 184.655 19.1159C184.329 18.8472 184.177 18.4441 184.199 17.9066C184.243 17.1901 184.286 16.0704 184.329 14.5476C184.373 13.0025 184.351 11.1998 184.264 9.1396C184.177 7.07939 183.95 4.91842 183.581 2.65668Z" fill="white"/>
<path d="M200.112 17.8731L198.615 3.22772C198.615 3.22772 198.583 3.16053 198.518 3.02617C198.474 2.89181 198.464 2.71266 198.485 2.48873C198.507 2.2648 198.626 2.02966 198.843 1.78333C199.082 1.53701 199.483 1.31307 200.047 1.11153C200.806 0.820415 201.696 0.585284 202.716 0.406137C203.757 0.204596 204.852 0.148611 206.002 0.238184C207.174 0.327758 208.323 0.686053 209.451 1.31307C210.124 1.67137 210.623 2.18642 210.948 2.85822C211.274 3.53003 211.469 4.24662 211.534 5.008C211.599 5.76938 211.599 6.49716 211.534 7.19136C211.491 7.88556 211.415 8.45659 211.306 8.90446C211.219 9.35233 211.176 9.57627 211.176 9.57627C211.176 9.57627 211.1 9.74422 210.948 10.0801C210.796 10.416 210.503 10.7967 210.07 11.2222C209.657 11.6253 209.05 11.95 208.247 12.1963L212.868 17.3356C212.868 17.3356 212.944 17.4252 213.096 17.6043C213.248 17.7835 213.367 18.0074 213.454 18.2761C213.562 18.5225 213.541 18.78 213.389 19.0487C213.259 19.295 212.901 19.5078 212.315 19.6869C211.707 19.8661 211.165 19.9109 210.688 19.8213C210.232 19.7317 209.853 19.5862 209.549 19.3846C209.267 19.1831 209.05 18.9927 208.898 18.8136C208.746 18.6344 208.67 18.5449 208.67 18.5449L204.375 13.0697L205.449 17.8059C205.449 17.8059 205.471 17.9066 205.514 18.1082C205.557 18.2873 205.536 18.5001 205.449 18.7464C205.362 18.9927 205.145 19.2167 204.798 19.4182C204.451 19.5974 203.898 19.6869 203.139 19.6869C202.379 19.6869 201.783 19.5974 201.349 19.4182C200.937 19.2391 200.644 19.0263 200.47 18.78C200.297 18.5337 200.188 18.3209 200.145 18.1418C200.123 17.9626 200.112 17.8731 200.112 17.8731ZM203.204 3.19412L203.985 9.94576C203.985 9.94576 204.104 9.95696 204.343 9.97935C204.603 10.0017 204.907 9.97935 205.254 9.91217C205.622 9.84499 205.97 9.68824 206.295 9.44191C206.642 9.17319 206.924 8.7701 207.141 8.23266C207.358 7.67282 207.434 6.91144 207.369 5.94852C207.304 5.03039 207.13 4.35859 206.848 3.93311C206.566 3.48524 206.219 3.20532 205.807 3.09335C205.395 2.95899 204.961 2.9254 204.505 2.99258C204.05 3.03737 203.616 3.10455 203.204 3.19412Z" fill="white"/>
<path d="M225.202 6.28443C224.464 6.28443 223.9 6.19485 223.509 6.01571C223.119 5.81416 222.837 5.59023 222.663 5.3439C222.512 5.09757 222.425 4.87364 222.403 4.6721C222.381 4.44816 222.371 4.3138 222.371 4.26901C222.371 4.15705 222.327 3.9779 222.24 3.73157C222.175 3.46285 221.958 3.32849 221.59 3.32849C220.982 3.32849 220.44 3.51883 219.963 3.89952C219.507 4.28021 219.258 4.84005 219.214 5.57903C219.171 6.31802 219.355 6.95623 219.767 7.49367C220.179 8.03112 220.993 8.31104 222.208 8.33343C222.815 8.33343 223.455 8.423 224.128 8.60215C224.8 8.7813 225.429 9.07241 226.015 9.4755C226.622 9.85619 227.1 10.3824 227.447 11.0542C227.816 11.7036 228 12.521 228 13.5063C227.978 15.477 227.468 16.9997 226.471 18.0746C225.473 19.1495 223.813 19.6869 221.492 19.6869C219.952 19.6869 218.715 19.4966 217.782 19.1159C216.85 18.7128 216.166 18.2425 215.732 17.7051C215.32 17.1677 215.103 16.6862 215.082 16.2607C215.06 15.8352 215.082 15.421 215.147 15.0179C215.233 14.6148 215.461 14.2677 215.83 13.9766C216.22 13.6855 216.839 13.5063 217.685 13.4391C218.552 13.372 219.171 13.4503 219.54 13.6743C219.908 13.8758 220.136 14.1109 220.223 14.3797C220.331 14.6484 220.386 14.8163 220.386 14.8835C220.386 14.9507 220.407 15.1187 220.451 15.3874C220.516 15.6337 220.624 15.88 220.776 16.1264C220.95 16.3503 221.188 16.4623 221.492 16.4623C221.948 16.4623 222.338 16.2719 222.663 15.8912C222.989 15.5105 223.195 14.8947 223.282 14.0438C223.434 12.3643 222.62 11.5245 220.841 11.5245C220.407 11.5245 219.843 11.4573 219.149 11.323C218.477 11.1662 217.804 10.8975 217.132 10.5168C216.459 10.1137 215.895 9.55388 215.439 8.83728C214.984 8.12069 214.767 7.18017 214.789 6.01571C214.81 4.85124 215.016 3.89952 215.407 3.16053C215.797 2.39916 216.307 1.81693 216.936 1.41384C217.587 0.988366 218.292 0.686054 219.051 0.506906C219.832 0.327758 220.603 0.226987 221.362 0.204594C222.381 0.182201 223.358 0.305365 224.29 0.574088C225.245 0.842809 226.037 1.25709 226.666 1.81693C227.317 2.35437 227.685 3.05976 227.772 3.93311C227.837 4.58252 227.74 5.07518 227.479 5.41108C227.241 5.72459 226.937 5.94852 226.568 6.08288C226.221 6.19485 225.907 6.26203 225.625 6.28443C225.343 6.28443 225.202 6.28443 225.202 6.28443Z" fill="white"/>
</svg>
