<svg width="29" height="25" viewBox="0 0 29 25" fill="none" xmlns="http://www.w3.org/2000/svg">
<g clip-path="url(#clip0_106_36)">
<path d="M25.9541 6.28551C25.9716 6.55144 25.9716 6.81737 25.9716 7.08575C25.9716 15.2635 20.0313 24.6948 9.16916 24.6948V24.6899C5.96045 24.6948 2.8184 23.7316 0.117188 21.9154C0.58376 21.9742 1.05267 22.0036 1.52275 22.0049C4.18186 22.0073 6.76497 21.0723 8.85695 19.3505C6.32997 19.3002 4.11404 17.5735 3.33993 15.0527C4.22513 15.2316 5.13723 15.1948 6.00606 14.946C3.25106 14.3627 1.269 11.826 1.269 8.87987C1.269 8.85291 1.269 8.82718 1.269 8.80144C2.08989 9.28061 3.009 9.54654 3.94916 9.57595C1.35436 7.75855 0.554526 4.1409 2.12146 1.31247C5.11969 5.17889 9.54336 7.52938 14.2921 7.77816C13.8162 5.62865 14.4663 3.3762 16.0005 1.86517C18.379 -0.477971 22.1198 -0.357873 24.3556 2.13355C25.6781 1.86026 26.9457 1.35169 28.1057 0.631097C27.6648 2.0637 26.7422 3.28061 25.5097 4.05389C26.6803 3.90928 27.8239 3.58085 28.9009 3.07963C28.108 4.32472 27.1094 5.40928 25.9541 6.28551Z" fill="black"/>
</g>
<defs>
<clipPath id="clip0_106_36">
<rect width="29" height="25" fill="white"/>
</clipPath>
</defs>
</svg>
