<svg width="29" height="26" viewBox="0 0 29 26" fill="none" xmlns="http://www.w3.org/2000/svg">
<g clip-path="url(#clip0_106_132)">
<path d="M25.9541 6.78563C25.9716 7.05156 25.9716 7.31749 25.9716 7.58588C25.9716 15.7636 20.0313 25.1949 9.16916 25.1949V25.19C5.96045 25.1949 2.8184 24.2317 0.117188 22.4155C0.58376 22.4744 1.05267 22.5038 1.52275 22.505C4.18186 22.5074 6.76497 21.5724 8.85695 19.8506C6.32997 19.8003 4.11404 18.0736 3.33993 15.5528C4.22513 15.7317 5.13723 15.6949 6.00606 15.4462C3.25106 14.8628 1.269 12.3261 1.269 9.37999C1.269 9.35303 1.269 9.3273 1.269 9.30156C2.08989 9.78073 3.009 10.0467 3.94916 10.0761C1.35436 8.25867 0.554526 4.64102 2.12146 1.81259C5.11969 5.67901 9.54336 8.0295 14.2921 8.27828C13.8162 6.12877 14.4663 3.87632 16.0005 2.36529C18.379 0.0221506 22.1198 0.142249 24.3556 2.63367C25.6781 2.36039 26.9457 1.85181 28.1057 1.13122C27.6648 2.56382 26.7422 3.78073 25.5097 4.55401C26.6803 4.40941 27.8239 4.08097 28.9009 3.57975C28.108 4.82485 27.1094 5.90941 25.9541 6.78563Z" fill="white"/>
</g>
<defs>
<clipPath id="clip0_106_132">
<rect width="29" height="25" fill="white" transform="translate(0 0.5)"/>
</clipPath>
</defs>
</svg>
